<svg xmlns="http://www.w3.org/2000/svg" version="1.1" xmlns:xlink="http://www.w3.org/1999/xlink" xmlns:svgjs="http://svgjs.dev/svgjs" width="1500" height="2400" viewBox="0 0 1500 2400"><g transform="matrix(1,0,0,1,-1.5247498830915447,-3.8709677419356012)"><svg viewBox="0 0 155 248" data-background-color="#f18989" preserveAspectRatio="xMidYMid meet" height="2400" width="1500" xmlns="http://www.w3.org/2000/svg" xmlns:xlink="http://www.w3.org/1999/xlink"><g id="tight-bounds" transform="matrix(1,0,0,1,0.1575574879194619,0.4000000000000057)"><svg viewBox="0 0 154.68488502416108 247.2" height="247.2" width="154.68488502416108"><g><svg viewBox="0 0 254.937726523888 407.412825027226" height="247.2" width="154.68488502416108"><g transform="matrix(1,0,0,1,0,160.21282502722602)"><svg viewBox="0 0 254.937726523888 247.2" height="247.2" width="254.937726523888"><g id="textblocktransform"><svg viewBox="0 0 254.937726523888 247.2" height="247.2" width="254.937726523888" id="textblock"><g><svg viewBox="0 0 254.937726523888 247.2" height="247.2" width="254.937726523888"><g transform="matrix(1,0,0,1,0,0)"><svg width="254.937726523888" viewBox="1.75 -29.1 31.299999999999997 30.35" height="247.2" data-palette-color="#4d4d69"><path d="M5.05 0Q3.65 0 2.7-0.68 1.75-1.35 1.75-2.35L1.75-2.35 1.8-14.55Q1.75-15.6 2.38-16.23 3-16.85 4-16.85L4-16.85 8.2-16.55 8.35-25.95 7.75-26.25 2.35-26.6 2.35-29.1 8.95-29.1Q10.35-29.1 10.95-28.38 11.55-27.65 11.55-25.85L11.55-25.85 11.4-2.95 12.3-2.45 12.3 0 5.05 0ZM7.95-2.9L8.2-3.3 8.1-13.8 5.3-13.8 5.05-13.5 4.85-3.3Q4.85-3.15 4.93-3.1 5-3.05 5.3-3L5.3-3 7.95-2.9ZM28.85 1.25L29.05-24.4Q29.05-24.55 28.97-24.6 28.9-24.65 28.6-24.7L28.6-24.7 25.3-24.7 25.65 0 22.3 0 22.45-25.8Q22.45-25.95 22.37-26 22.3-26.05 22-26.1L22-26.1 19.1-26.3Q18.7-26.3 18.7-25.9L18.7-25.9 18.85 0 15.05 0 15.05-1.8 15.85-2.7 15.8-29.1 22.35-29.1Q24.3-29.1 25.05-27.65L25.05-27.65Q26.3-27.85 28.95-27.85L28.95-27.85Q30.3-27.85 31.15-27.18 32-26.5 32-25.45L32-25.45 31.95-1.9 33.05-1.35 33.05 1.25 28.85 1.25Z" opacity="1" transform="matrix(1,0,0,1,0,0)" fill="#4d4d69" class="wordmark-text-0" data-fill-palette-color="primary" id="text-0"></path></svg></g></svg></g></svg></g></svg></g><g transform="matrix(1,0,0,1,28.211408817133446,0)"><svg viewBox="0 0 198.5149088896211 101.85483782722602" height="101.85483782722602" width="198.5149088896211"><g><svg xmlns="http://www.w3.org/2000/svg" xmlns:xlink="http://www.w3.org/1999/xlink" version="1.1" x="0" y="0" viewBox="10.019899873158188 29.482 79.97909574378829 41.036000127734724" style="enable-background:new 0 0 100 100;" xml:space="preserve" height="101.85483782722602" width="198.5149088896211" class="icon-icon-0" data-fill-palette-color="accent" id="icon-0"></svg></g></svg></g><g></g></svg></g><defs></defs><mask id="27e5a93c-033f-4dac-931d-b315ec9d0f17"><g id="SvgjsG2176"><svg viewBox="0 0 154.68488502416108 247.2" height="247.2" width="154.68488502416108"><g><svg viewBox="0 0 254.937726523888 407.412825027226" height="247.2" width="154.68488502416108"><g transform="matrix(1,0,0,1,0,160.21282502722602)"><svg viewBox="0 0 254.937726523888 247.2" height="247.2" width="254.937726523888"><g id="SvgjsG2175"><svg viewBox="0 0 254.937726523888 247.2" height="247.2" width="254.937726523888" id="SvgjsSvg2174"><g><svg viewBox="0 0 254.937726523888 247.2" height="247.2" width="254.937726523888"><g transform="matrix(1,0,0,1,0,0)"><svg width="254.937726523888" viewBox="1.75 -29.1 31.299999999999997 30.35" height="247.2" data-palette-color="#4d4d69"><path d="M5.05 0Q3.65 0 2.7-0.68 1.75-1.35 1.75-2.35L1.75-2.35 1.8-14.55Q1.75-15.6 2.38-16.23 3-16.85 4-16.85L4-16.85 8.2-16.55 8.35-25.95 7.75-26.25 2.35-26.6 2.35-29.1 8.95-29.1Q10.35-29.1 10.95-28.38 11.55-27.65 11.55-25.85L11.55-25.85 11.4-2.95 12.3-2.45 12.3 0 5.05 0ZM7.95-2.9L8.2-3.3 8.1-13.8 5.3-13.8 5.05-13.5 4.85-3.3Q4.85-3.15 4.93-3.1 5-3.05 5.3-3L5.3-3 7.95-2.9ZM28.85 1.25L29.05-24.4Q29.05-24.55 28.97-24.6 28.9-24.65 28.6-24.7L28.6-24.7 25.3-24.7 25.65 0 22.3 0 22.45-25.8Q22.45-25.95 22.37-26 22.3-26.05 22-26.1L22-26.1 19.1-26.3Q18.7-26.3 18.7-25.9L18.7-25.9 18.85 0 15.05 0 15.05-1.8 15.85-2.7 15.8-29.1 22.35-29.1Q24.3-29.1 25.05-27.65L25.05-27.65Q26.3-27.85 28.95-27.85L28.95-27.85Q30.3-27.85 31.15-27.18 32-26.5 32-25.45L32-25.45 31.95-1.9 33.05-1.35 33.05 1.25 28.85 1.25Z" opacity="1" transform="matrix(1,0,0,1,0,0)" fill="black" class="wordmark-text-0" id="SvgjsPath2173"></path></svg></g></svg></g></svg></g></svg></g><g transform="matrix(1,0,0,1,28.211408817133446,0)"><svg viewBox="0 0 198.5149088896211 101.85483782722602" height="101.85483782722602" width="198.5149088896211"><g><svg xmlns="http://www.w3.org/2000/svg" xmlns:xlink="http://www.w3.org/1999/xlink" version="1.1" x="0" y="0" viewBox="10.019899873158188 29.482 79.97909574378829 41.036000127734724" style="enable-background:new 0 0 100 100;" xml:space="preserve" height="101.85483782722602" width="198.5149088896211" class="icon-icon-0" data-fill-palette-color="accent" id="SvgjsSvg2172"><g fill="white"><path d="M85.54 68.518H78.277C77.228 53.113 64.984 41.18 50 41.18S22.772 53.113 21.72 68.518H14.46A1 1 0 1 0 14.46 70.518H85.539A1 1 0 1 0 85.54 68.518M23.717 68.518C24.76 54.228 36.118 43.18 50 43.18S75.24 54.227 76.281 68.518z" fill="white"></path><path d="M50 37.791A1 1 0 0 0 51 36.791V30.482A1 1 0 1 0 49 30.482V36.792A1 1 0 0 0 50 37.791" fill="white"></path><path d="M28.796 44.006A1 1 0 0 0 30.192 44.226 1 1 0 0 0 30.413 42.83L26.705 37.726A1 1 0 1 0 25.088 38.902z" fill="white"></path><path d="M17 61.767A1.001 1.001 0 0 0 17.309 59.816L11.309 57.866A1 1 0 0 0 10.692 59.768L16.691 61.719C16.793 61.751 16.896 61.768 17 61.768" fill="white"></path><path d="M89.951 58.509A1 1 0 0 0 88.691 57.866L82.691 59.816A1 1 0 0 0 83.31 61.718L89.309 59.768A1 1 0 0 0 89.95 58.509" fill="white"></path><path d="M70.394 44.418C70.704 44.418 71.008 44.275 71.204 44.006L74.91 38.902A1 1 0 1 0 73.294 37.726L69.586 42.83A1 1 0 0 0 70.394 44.418" fill="white"></path></g></svg></g></svg></g><g></g></svg></g><defs><mask></mask></defs></svg><rect width="154.68488502416108" height="247.2" fill="black" stroke="none" visibility="hidden"></rect></g></mask><linearGradient x1="0.054" x2="0.941" y1="0.5" y2="0.5" id="3c8e2280-aae3-4682-bbae-8bf6af62a40c"><stop stop-color="#eaa79c" offset="0"></stop><stop stop-color="#f2e8cb" offset="0.498"></stop><stop stop-color="#eaa79c" offset="1"></stop></linearGradient><rect width="154.68488502416108" height="247.2" fill="url(#3c8e2280-aae3-4682-bbae-8bf6af62a40c)" mask="url(#27e5a93c-033f-4dac-931d-b315ec9d0f17)" data-fill-palette-color="accent"></rect></svg><rect width="154.68488502416108" height="247.2" fill="none" stroke="none" visibility="hidden"></rect></g></svg></g></svg>